<svg xmlns:xlink="http://www.w3.org/1999/xlink" xmlns="http://www.w3.org/2000/svg" viewBox="0 0 32 32" aria-hidden="true" role="presentation" focusable="false" style="display: block; height: 24px; width: 24px; fill: currentcolor;" width="32"  height="32" ><path d="M22 15a5 5 0 0 1 3.4 8.67 9 9 0 0 1 5.6 8.06V32h-2a7 7 0 0 0-6-6.93v-2.24a3 3 0 1 0-2 0v2.24c-1.37.2-2.64.8-3.67 1.71 1 1.4 1.61 3.11 1.67 4.95V32h-2a7 7 0 0 0-6-6.93v-2.24a3 3 0 1 0-2 0v2.24a7 7 0 0 0-6 6.69V32H1a9 9 0 0 1 5.6-8.34A4.98 4.98 0 0 1 10 15a5 5 0 0 1 3.4 8.67 9 9 0 0 1 2.6 1.62 8.95 8.95 0 0 1 2.6-1.62A4.99 4.99 0 0 1 22 15zm0-15a3 3 0 0 1 3 3v7a3 3 0 0 1-3 3h-3l-3 4-3-4h-3a3 3 0 0 1-3-3V3a3 3 0 0 1 3-3zm0 2H10a1 1 0 0 0-1 .88V10a1 1 0 0 0 .88 1H14l2 2.67L18 11h4a1 1 0 0 0 1-.88V3a1 1 0 0 0-.88-1z" fill="#222222"></path></svg>